<svg width="62" height="63" viewBox="0 0 62 63" fill="none" xmlns="http://www.w3.org/2000/svg">
<path fill-rule="evenodd" clip-rule="evenodd" d="M31 62.7647C48.1208 62.7647 62 59.75 62 57.2647C62 54.7794 48.1208 51.7647 31 51.7647C13.8792 51.7647 0 54.7794 0 57.2647C0 59.75 13.8792 62.7647 31 62.7647ZM31 59.7647C40.3888 59.7647 48 58.6454 48 57.2647C48 55.884 40.3888 54.7647 31 54.7647C21.6112 54.7647 14 55.884 14 57.2647C14 58.6454 21.6112 59.7647 31 59.7647Z" fill="#FB9257"/>
<path fill-rule="evenodd" clip-rule="evenodd" d="M31 47.7647C32.75 47.7647 45 21.8072 45 14.0484C45 6.2897 38.732 0 31 0C23.268 0 17 6.2897 17 14.0484C17 21.8072 29.25 47.7647 31 47.7647ZM25.5 26C24 22 22.0651 13.8699 24 10C26 6 28.5 6.00001 30 6.5C31 6.83334 32.9 8.00002 32.5 10C32.2968 11.0162 31.5979 11.2889 30.7391 11.6239C29.4852 12.1132 27.8903 12.7355 27 16C25.8 20.4 25.5 24.5 25.5 26Z" fill="#FB9257"/>
</svg>
